<mxfile host="app.diagrams.net" modified="2022-05-19T02:42:14.060Z" agent="5.0 (Windows NT 10.0; Win64; x64) AppleWebKit/537.36 (KHTML, like Gecko) Chrome/101.0.4951.64 Safari/537.36 Edg/101.0.1210.47" etag="D8Cy5ASxAJ2zqCl40d6p" version="18.0.6" type="github">
  <diagram id="JgQjzqxNZNQIqvgPIzJD" name="第 1 页">
    <mxGraphModel dx="778" dy="803" grid="1" gridSize="10" guides="1" tooltips="1" connect="1" arrows="1" fold="1" page="1" pageScale="1" pageWidth="827" pageHeight="1169" math="0" shadow="0">
      <root>
        <mxCell id="0" />
        <mxCell id="1" parent="0" />
        <mxCell id="jqA8BkCCrT_3fO1ljEBm-1" value="window安装docker" style="rounded=0;whiteSpace=wrap;html=1;fillColor=#f5f5f5;fontColor=#333333;strokeColor=#666666;" vertex="1" parent="1">
          <mxGeometry x="30" y="40" width="120" height="60" as="geometry" />
        </mxCell>
        <mxCell id="jqA8BkCCrT_3fO1ljEBm-4" value="" style="edgeStyle=orthogonalEdgeStyle;rounded=0;orthogonalLoop=1;jettySize=auto;html=1;" edge="1" parent="1" source="jqA8BkCCrT_3fO1ljEBm-2" target="jqA8BkCCrT_3fO1ljEBm-3">
          <mxGeometry relative="1" as="geometry" />
        </mxCell>
        <mxCell id="jqA8BkCCrT_3fO1ljEBm-2" value="window 开启 WSL2" style="rounded=0;whiteSpace=wrap;html=1;" vertex="1" parent="1">
          <mxGeometry x="30" y="140" width="120" height="60" as="geometry" />
        </mxCell>
        <mxCell id="jqA8BkCCrT_3fO1ljEBm-3" value="安装 docker desktop installer.exe 文件" style="rounded=0;whiteSpace=wrap;html=1;" vertex="1" parent="1">
          <mxGeometry x="30" y="280" width="120" height="60" as="geometry" />
        </mxCell>
      </root>
    </mxGraphModel>
  </diagram>
</mxfile>
